<svg width="276" height="119" viewBox="0 0 276 119" fill="none" xmlns="http://www.w3.org/2000/svg">
<rect x="1" y="1" width="117" height="117" rx="28.8177" stroke="#3661FF" stroke-width="1.20619" stroke-dasharray="7.24 7.24"/>
<g filter="url(#filter0_d_2532_94)">
<rect x="13.0618" y="13.0618" width="92.8763" height="92.8763" rx="19.299" fill="url(#paint0_linear_2532_94)"/>
<rect x="13.6381" y="13.6381" width="91.7236" height="91.7236" rx="18.7226" stroke="#3661FF" stroke-width="1.15271"/>
</g>
<path opacity="0.35" d="M46.9967 38.4359C46.9967 38.5416 46.9439 38.6473 46.891 38.753C46.0454 39.5987 44.9884 40.0215 43.7728 40.0215C42.61 40.0215 41.5002 39.5458 40.6545 38.753C40.6017 38.6473 40.5488 38.5416 40.5488 38.4359C40.5488 38.3302 40.6017 38.2245 40.6545 38.1188C40.8131 37.9603 41.0773 37.9603 41.2888 38.1188C42.6629 39.493 44.8827 39.493 46.2568 38.1188C46.4154 37.9603 46.6796 37.9603 46.891 38.1188C46.9439 38.1717 46.9967 38.2774 46.9967 38.4359Z" fill="#2196F3"/>
<path opacity="0.35" d="M49.7981 41.1841C49.7981 41.2898 49.7453 41.3955 49.6924 41.5012C46.4685 44.7252 41.1833 44.7252 37.9065 41.5012C37.8536 41.3955 37.8008 41.2898 37.8008 41.1841C37.8008 41.0784 37.8536 40.9727 37.9065 40.867C38.065 40.7084 38.3293 40.7084 38.4879 40.867C39.9149 42.294 41.7647 43.0339 43.773 43.0339C45.7814 43.0339 47.6312 42.2411 49.0582 40.867C49.1639 40.7613 49.2696 40.7613 49.3753 40.7613C49.481 40.7613 49.5867 40.8141 49.6924 40.867C49.7453 40.9727 49.7981 41.0784 49.7981 41.1841Z" fill="#2196F3"/>
<path opacity="0.35" d="M52.5996 43.9857C52.5996 44.0914 52.5468 44.1971 52.4939 44.3028C47.6844 49.1123 39.9152 49.1123 35.1057 44.3028C35.0529 44.2499 35 44.1442 35 44.0385C35 43.9328 35.0529 43.8271 35.1057 43.7214C35.2643 43.5629 35.5285 43.5629 35.6871 43.7214C40.1266 48.161 47.3673 48.161 51.8069 43.7214C51.9654 43.5629 52.2297 43.5629 52.4411 43.7214C52.5468 43.7743 52.5996 43.88 52.5996 43.9857Z" fill="#2196F3"/>
<g clip-path="url(#clip0_2532_94)">
<path d="M59.8001 29.0218H55.7014V32.3004H59.8001C68.842 32.3004 76.1947 39.6531 76.1947 48.695V73.2869H79.4733V48.695C79.4733 37.8497 70.6448 29.0215 59.7998 29.0215L59.8001 29.0218ZM81.9328 81.4845H73.7355V76.5658H81.9328V81.4845ZM81.9328 96.2396H73.7355V84.7631H81.9328V96.2396ZM52.4225 29.0218V32.3004C52.4225 34.1119 50.9554 35.579 49.1439 35.579H39.3073C37.4958 35.579 36.0287 34.1119 36.0287 32.3004L36.0281 29.0218H52.4225Z" fill="#00386B"/>
</g>
<rect x="158" y="1" width="117" height="117" rx="28.8177" stroke="#3661FF" stroke-width="1.20619" stroke-dasharray="7.24 7.24"/>
<g filter="url(#filter1_d_2532_94)">
<rect x="170.062" y="13.0618" width="92.8763" height="92.8763" rx="19.299" fill="url(#paint1_linear_2532_94)"/>
<rect x="170.638" y="13.6381" width="91.7236" height="91.7236" rx="18.7226" stroke="#3661FF" stroke-width="1.15271"/>
</g>
<path opacity="0.35" d="M203.997 38.4359C203.997 38.5416 203.944 38.6473 203.891 38.753C203.045 39.5987 201.988 40.0215 200.773 40.0215C199.61 40.0215 198.5 39.5458 197.655 38.753C197.602 38.6473 197.549 38.5416 197.549 38.4359C197.549 38.3302 197.602 38.2245 197.655 38.1188C197.813 37.9603 198.077 37.9603 198.289 38.1188C199.663 39.493 201.883 39.493 203.257 38.1188C203.415 37.9603 203.68 37.9603 203.891 38.1188C203.944 38.1717 203.997 38.2774 203.997 38.4359Z" fill="#2196F3"/>
<path opacity="0.35" d="M206.798 41.1841C206.798 41.2898 206.745 41.3955 206.692 41.5012C203.468 44.7252 198.183 44.7252 194.906 41.5012C194.854 41.3955 194.801 41.2898 194.801 41.1841C194.801 41.0784 194.854 40.9727 194.906 40.867C195.065 40.7084 195.329 40.7084 195.488 40.867C196.915 42.294 198.765 43.0339 200.773 43.0339C202.781 43.0339 204.631 42.2411 206.058 40.867C206.164 40.7613 206.27 40.7613 206.375 40.7613C206.481 40.7613 206.587 40.8141 206.692 40.867C206.745 40.9727 206.798 41.0784 206.798 41.1841Z" fill="#2196F3"/>
<path opacity="0.35" d="M209.6 43.9857C209.6 44.0914 209.547 44.1971 209.494 44.3028C204.684 49.1123 196.915 49.1123 192.106 44.3028C192.053 44.2499 192 44.1442 192 44.0385C192 43.9328 192.053 43.8271 192.106 43.7214C192.264 43.5629 192.529 43.5629 192.687 43.7214C197.127 48.161 204.367 48.161 208.807 43.7214C208.965 43.5629 209.23 43.5629 209.441 43.7214C209.547 43.7743 209.6 43.88 209.6 43.9857Z" fill="#2196F3"/>
<g clip-path="url(#clip1_2532_94)">
<path d="M216.8 31.0218H212.701V34.3004H216.8C225.842 34.3004 233.195 41.6531 233.195 50.695V75.2869H236.473V50.695C236.473 39.8497 227.645 31.0215 216.8 31.0215L216.8 31.0218ZM238.933 83.4845H230.736V78.5658H238.933V83.4845ZM238.933 98.2396H230.736V86.7631H238.933V98.2396ZM209.423 31.0218V34.3004C209.423 36.1119 207.955 37.579 206.144 37.579H196.307C194.496 37.579 193.029 36.1119 193.029 34.3004L193.028 31.0218H209.423Z" fill="#00386B"/>
</g>
<defs>
<filter id="filter0_d_2532_94" x="6.72187" y="7.29822" width="110.167" height="110.167" filterUnits="userSpaceOnUse" color-interpolation-filters="sRGB">
<feFlood flood-opacity="0" result="BackgroundImageFix"/>
<feColorMatrix in="SourceAlpha" type="matrix" values="0 0 0 0 0 0 0 0 0 0 0 0 0 0 0 0 0 0 127 0" result="hardAlpha"/>
<feOffset dx="2.30542" dy="2.88177"/>
<feGaussianBlur stdDeviation="4.32266"/>
<feComposite in2="hardAlpha" operator="out"/>
<feColorMatrix type="matrix" values="0 0 0 0 0.808333 0 0 0 0 0.808333 0 0 0 0 0.808333 0 0 0 0.05 0"/>
<feBlend mode="normal" in2="BackgroundImageFix" result="effect1_dropShadow_2532_94"/>
<feBlend mode="normal" in="SourceGraphic" in2="effect1_dropShadow_2532_94" result="shape"/>
</filter>
<filter id="filter1_d_2532_94" x="163.722" y="7.29822" width="110.167" height="110.167" filterUnits="userSpaceOnUse" color-interpolation-filters="sRGB">
<feFlood flood-opacity="0" result="BackgroundImageFix"/>
<feColorMatrix in="SourceAlpha" type="matrix" values="0 0 0 0 0 0 0 0 0 0 0 0 0 0 0 0 0 0 127 0" result="hardAlpha"/>
<feOffset dx="2.30542" dy="2.88177"/>
<feGaussianBlur stdDeviation="4.32266"/>
<feComposite in2="hardAlpha" operator="out"/>
<feColorMatrix type="matrix" values="0 0 0 0 0.808333 0 0 0 0 0.808333 0 0 0 0 0.808333 0 0 0 0.05 0"/>
<feBlend mode="normal" in2="BackgroundImageFix" result="effect1_dropShadow_2532_94"/>
<feBlend mode="normal" in="SourceGraphic" in2="effect1_dropShadow_2532_94" result="shape"/>
</filter>
<linearGradient id="paint0_linear_2532_94" x1="59.4999" y1="13.0618" x2="59.4999" y2="105.938" gradientUnits="userSpaceOnUse">
<stop stop-color="white"/>
<stop offset="0.9999" stop-color="#F3FDFF"/>
</linearGradient>
<linearGradient id="paint1_linear_2532_94" x1="216.5" y1="13.0618" x2="216.5" y2="105.938" gradientUnits="userSpaceOnUse">
<stop stop-color="white"/>
<stop offset="0.9999" stop-color="#F3FDFF"/>
</linearGradient>
<clipPath id="clip0_2532_94">
<rect width="46" height="67.2983" fill="white" transform="matrix(-1 0 0 1 82 29)"/>
</clipPath>
<clipPath id="clip1_2532_94">
<rect width="46" height="67.2983" fill="white" transform="matrix(-1 0 0 1 239 31)"/>
</clipPath>
</defs>
</svg>
